<?xml version="1.0" encoding="utf-8"?>
<!-- Generator: Adobe Illustrator 22.1.0, SVG Export Plug-In . SVG Version: 6.00 Build 0)  -->
<svg version="1.1" id="Réteg_1" xmlns="http://www.w3.org/2000/svg" xmlns:xlink="http://www.w3.org/1999/xlink" x="0px" y="0px"
	 viewBox="0 0 698.1 234.6" style="enable-background:new 0 0 698.1 234.6;" xml:space="preserve">
<style type="text/css">
	.st0{fill:#FFFFFF;}
	.st1{font-family:'FiraSans-UltraLight';}
	.st2{font-size:132px;}
</style>
<g>
	<path class="st0" d="M86.3,0C38.7,0,0,38.7,0,86.3c0,12.4,2.5,24.3,7.5,35.3c21.6,47.2,63,97.1,75.2,111.3c0.9,1.1,2.2,1.7,3.6,1.7
		s2.7-0.6,3.6-1.7c12.2-14.2,53.6-64,75.1-111.3c5-11,7.6-22.8,7.6-35.3C172.7,38.7,134,0,86.3,0L86.3,0z M86.3,131.2
		c-24.7,0-44.8-20.1-44.8-44.8c0-24.8,20.1-44.9,44.8-44.9s44.9,20.1,44.9,44.8C131.2,111.1,111.1,131.2,86.3,131.2L86.3,131.2z"/>
</g>
<text transform="matrix(1 0 0 1 197.031 156.6006)" class="st0 st1 st2">LAKODEX</text>
</svg>
